# xmcd
#
# Track frame offsets: 
#        150
#        18454
#        36352
#        60355
#        80763
#        99299
#        115424
#        137410
#        151882
#        169661
#        190089
#
# Disc length: 2772 seconds
#
# Revision: 0
# Processed by: cddbd v1.5.2PL0 Copyright (c) Steve Scherf et al.
# Submitted via: ExactAudioCopy v0.99pb4
#
DISCID=830ad20b
DTITLE=Grzmiaca Pollitrowa - (Z)zajawki
DYEAR=2011
DGENRE=Country
TTITLE0=Piesenka zakozana
TTITLE1=Podmiejskie pociagi
TTITLE2=List do dawnego przyjaciela
TTITLE3=Piesenka zegnalska
TTITLE4=Zyje sie raz
TTITLE5=Male miasto
TTITLE6=Nie biore
TTITLE7=Studia
TTITLE8=Kantry
TTITLE9=Stare kufle
TTITLE10=Bradiaga
EXTD=
EXTT0=
EXTT1=
EXTT2=
EXTT3=
EXTT4=
EXTT5=
EXTT6=
EXTT7=
EXTT8=
EXTT9=
EXTT10=
PLAYORDER=
